<svg width="673" height="511" viewBox="0 0 673 511" fill="none" xmlns="http://www.w3.org/2000/svg">
<path d="M23.616 455.168L25.344 460.64L6.336 426.944C5.952 426.176 5.504 425.632 4.992 425.312C4.544 424.992 4.032 424.8 3.456 424.736C2.944 424.608 2.368 424.544 1.728 424.544H1.056V419.84H31.584V424.544H30.048C29.216 424.544 28.384 424.576 27.552 424.64C26.72 424.704 26.048 424.832 25.536 425.024C25.088 425.152 24.864 425.344 24.864 425.6L40.32 453.92L37.536 454.4L52.32 426.464C52.32 426.08 52.096 425.76 51.648 425.504C51.2 425.184 50.592 424.96 49.824 424.832C49.056 424.64 48.128 424.544 47.04 424.544H45.6V419.84H63.936V424.544H63.36C62.592 424.544 61.856 424.672 61.152 424.928C60.512 425.184 59.904 425.6 59.328 426.176C58.752 426.752 58.176 427.552 57.6 428.576L40.416 460.736L42.144 455.168V480.032C42.144 481.44 42.656 482.336 43.68 482.72C44.768 483.104 46.112 483.296 47.712 483.296H49.056V488H16.608V483.296H18.048C19.584 483.296 20.896 483.104 21.984 482.72C23.072 482.336 23.616 481.44 23.616 480.032V455.168ZM97.2195 458.144L97.1235 462.752C94.8835 463.008 92.8995 463.36 91.1715 463.808C89.4435 464.256 87.9075 464.832 86.5635 465.536C85.2835 466.176 84.2275 466.944 83.3955 467.84C82.6275 468.736 82.0195 469.76 81.5715 470.912C81.1875 472.064 80.9955 473.344 80.9955 474.752C80.9955 476.416 81.2195 477.824 81.6675 478.976C82.1795 480.064 82.8835 480.896 83.7795 481.472C84.7395 481.984 85.8275 482.24 87.0435 482.24C88.5155 482.24 89.8275 481.856 90.9795 481.088C92.1955 480.256 93.2515 479.136 94.1475 477.728C95.1075 476.32 95.9395 474.688 96.6435 472.832L97.6035 476.768C96.8355 479.264 95.6835 481.44 94.1475 483.296C92.6755 485.088 90.8195 486.496 88.5795 487.52C86.3395 488.48 83.6835 488.96 80.6115 488.96C77.3475 488.96 74.5315 488.448 72.1635 487.424C69.7955 486.4 67.9715 484.928 66.6915 483.008C65.4115 481.024 64.7715 478.592 64.7715 475.712C64.7715 473.024 65.4435 470.72 66.7875 468.8C68.1955 466.88 70.2435 465.248 72.9315 463.904C75.6835 462.56 79.0755 461.44 83.1075 460.544C87.2035 459.584 91.9075 458.784 97.2195 458.144ZM96.0675 488V478.784L94.9155 478.88V450.56C94.9155 448.768 94.6595 447.296 94.1475 446.144C93.6355 444.928 92.8355 444.064 91.7475 443.552C90.7235 443.04 89.3795 442.784 87.7155 442.784C85.4115 442.784 83.4595 443.264 81.8595 444.224C80.3235 445.12 79.1395 446.24 78.3075 447.584C78.1155 446.944 78.0515 446.336 78.1155 445.76C78.1795 445.184 78.3395 444.672 78.5955 444.224C78.9155 443.712 79.2995 443.296 79.7475 442.976C80.2595 442.592 80.8355 442.304 81.4755 442.112V453.92H68.3235V443.552C69.2195 442.848 70.5955 442.016 72.4515 441.056C74.3715 440.096 76.7715 439.232 79.6515 438.464C82.5315 437.696 85.8595 437.312 89.6355 437.312C93.0275 437.312 96.0675 437.664 98.7555 438.368C101.508 439.008 103.876 440.032 105.86 441.44C107.844 442.784 109.348 444.544 110.372 446.72C111.46 448.832 112.004 451.392 112.004 454.4V480.512C112.004 481.216 112.164 481.76 112.484 482.144C112.868 482.464 113.38 482.72 114.02 482.912C114.724 483.104 115.556 483.232 116.516 483.296L116.996 483.392V488H96.0675ZM123.049 443.456V438.752H123.337C124.809 438.752 126.089 438.624 127.177 438.368C128.265 438.048 129.097 437.568 129.673 436.928C130.313 436.224 130.697 435.232 130.825 433.952L136.681 438.272H158.665V443.456H123.049ZM146.857 473.504C146.857 475.872 147.113 477.76 147.625 479.168C148.137 480.512 148.873 481.472 149.833 482.048C150.857 482.56 152.105 482.816 153.577 482.816C154.793 482.816 155.913 482.656 156.937 482.336C158.025 482.016 158.761 481.792 159.145 481.664V487.232C158.697 487.488 157.961 487.744 156.937 488C155.977 488.256 154.825 488.48 153.481 488.672C152.137 488.864 150.633 488.96 148.969 488.96C145.193 488.96 141.801 488.448 138.793 487.424C135.849 486.336 133.545 484.544 131.881 482.048C130.217 479.552 129.385 476.192 129.385 471.968V439.712L130.441 438.848L131.401 425.216H146.857V473.504ZM207.461 438.08V452.672C206.949 452.544 206.373 452.448 205.733 452.384C205.093 452.256 204.421 452.16 203.717 452.096C203.013 451.968 202.309 451.904 201.605 451.904C200.197 451.904 198.885 452.064 197.669 452.384C196.453 452.64 195.301 453.056 194.213 453.632C193.125 454.144 192.133 454.88 191.237 455.84C190.405 456.736 189.669 457.824 189.029 459.104L188.933 455.264C189.829 451.936 190.917 448.928 192.197 446.24C193.477 443.552 195.077 441.44 196.997 439.904C198.917 438.368 201.221 437.6 203.909 437.6C204.741 437.6 205.445 437.664 206.021 437.792C206.661 437.856 207.141 437.952 207.461 438.08ZM168.485 488V483.584H168.581C169.989 483.584 171.141 483.424 172.037 483.104C172.997 482.72 173.477 481.952 173.477 480.8V446.24C173.477 445.536 173.349 444.992 173.093 444.608C172.837 444.224 172.389 443.936 171.749 443.744C171.109 443.488 170.309 443.264 169.349 443.072L168.485 442.88V438.272H189.893V454.112L191.045 453.44V482.336C191.045 482.656 191.333 482.912 191.909 483.104C192.549 483.232 193.317 483.36 194.213 483.488C195.109 483.552 195.973 483.584 196.805 483.584H198.053V488H168.485ZM248.401 458.144L248.305 462.752C246.065 463.008 244.081 463.36 242.353 463.808C240.625 464.256 239.089 464.832 237.745 465.536C236.465 466.176 235.409 466.944 234.577 467.84C233.809 468.736 233.201 469.76 232.753 470.912C232.369 472.064 232.177 473.344 232.177 474.752C232.177 476.416 232.401 477.824 232.849 478.976C233.361 480.064 234.065 480.896 234.961 481.472C235.921 481.984 237.009 482.24 238.225 482.24C239.697 482.24 241.009 481.856 242.161 481.088C243.377 480.256 244.433 479.136 245.329 477.728C246.289 476.32 247.121 474.688 247.825 472.832L248.785 476.768C248.017 479.264 246.865 481.44 245.329 483.296C243.857 485.088 242.001 486.496 239.761 487.52C237.521 488.48 234.865 488.96 231.793 488.96C228.529 488.96 225.713 488.448 223.345 487.424C220.977 486.4 219.153 484.928 217.873 483.008C216.593 481.024 215.953 478.592 215.953 475.712C215.953 473.024 216.625 470.72 217.969 468.8C219.377 466.88 221.425 465.248 224.113 463.904C226.865 462.56 230.257 461.44 234.289 460.544C238.385 459.584 243.089 458.784 248.401 458.144ZM247.249 488V478.784L246.097 478.88V450.56C246.097 448.768 245.841 447.296 245.329 446.144C244.817 444.928 244.017 444.064 242.929 443.552C241.905 443.04 240.561 442.784 238.897 442.784C236.593 442.784 234.641 443.264 233.041 444.224C231.505 445.12 230.321 446.24 229.489 447.584C229.297 446.944 229.233 446.336 229.297 445.76C229.361 445.184 229.521 444.672 229.777 444.224C230.097 443.712 230.481 443.296 230.929 442.976C231.441 442.592 232.017 442.304 232.657 442.112V453.92H219.505V443.552C220.401 442.848 221.777 442.016 223.633 441.056C225.553 440.096 227.953 439.232 230.833 438.464C233.713 437.696 237.041 437.312 240.817 437.312C244.209 437.312 247.249 437.664 249.937 438.368C252.689 439.008 255.057 440.032 257.041 441.44C259.025 442.784 260.529 444.544 261.553 446.72C262.641 448.832 263.185 451.392 263.185 454.4V480.512C263.185 481.216 263.345 481.76 263.665 482.144C264.049 482.464 264.561 482.72 265.201 482.912C265.905 483.104 266.737 483.232 267.697 483.296L268.177 483.392V488H247.249ZM304.845 483.2C307.405 483.2 309.581 482.848 311.373 482.144C313.165 481.44 314.541 480.384 315.501 478.976C316.461 477.504 316.941 475.648 316.941 473.408C316.941 471.552 316.493 470.016 315.597 468.8C314.765 467.584 313.517 466.528 311.853 465.632C310.253 464.736 308.301 463.904 305.997 463.136C303.757 462.368 301.261 461.568 298.509 460.736C296.013 459.968 293.581 459.04 291.213 457.952C288.909 456.864 286.829 455.52 284.973 453.92C283.117 452.256 281.613 450.208 280.461 447.776C279.373 445.344 278.829 442.4 278.829 438.944C278.829 434.656 279.885 431.04 281.997 428.096C284.109 425.088 286.893 422.816 290.349 421.28C293.869 419.68 297.741 418.88 301.965 418.88C305.677 418.88 308.909 419.392 311.661 420.416C314.477 421.44 316.845 422.976 318.765 425.024C320.685 427.072 322.253 429.696 323.469 432.896L319.341 431.552L320.877 419.84H326.349V437.696H320.589C319.757 434.944 318.509 432.608 316.845 430.688C315.245 428.704 313.325 427.2 311.085 426.176C308.909 425.152 306.509 424.64 303.885 424.64C301.581 424.64 299.629 424.992 298.029 425.696C296.429 426.336 295.213 427.296 294.381 428.576C293.549 429.856 293.133 431.392 293.133 433.184C293.133 434.976 293.581 436.48 294.477 437.696C295.373 438.912 296.589 439.936 298.125 440.768C299.661 441.6 301.453 442.336 303.501 442.976C305.613 443.552 307.885 444.16 310.317 444.8C313.069 445.568 315.693 446.496 318.189 447.584C320.749 448.608 323.053 449.92 325.101 451.52C327.149 453.12 328.749 455.136 329.901 457.568C331.053 459.936 331.629 462.88 331.629 466.4C331.629 470.944 330.573 474.912 328.461 478.304C326.413 481.696 323.501 484.32 319.725 486.176C315.949 488.032 311.469 488.96 306.285 488.96C302.509 488.96 298.957 488.416 295.629 487.328C292.365 486.176 289.453 484.416 286.893 482.048C284.397 479.616 282.413 476.448 280.941 472.544L284.973 474.944L283.437 488H277.773V466.976H284.013C285.229 470.56 286.861 473.568 288.909 476C290.957 478.368 293.325 480.16 296.013 481.376C298.765 482.592 301.709 483.2 304.845 483.2ZM374.813 458.144L374.717 462.752C372.477 463.008 370.493 463.36 368.765 463.808C367.037 464.256 365.501 464.832 364.157 465.536C362.877 466.176 361.821 466.944 360.989 467.84C360.221 468.736 359.613 469.76 359.165 470.912C358.781 472.064 358.589 473.344 358.589 474.752C358.589 476.416 358.813 477.824 359.261 478.976C359.773 480.064 360.477 480.896 361.373 481.472C362.333 481.984 363.421 482.24 364.637 482.24C366.109 482.24 367.421 481.856 368.573 481.088C369.789 480.256 370.845 479.136 371.741 477.728C372.701 476.32 373.533 474.688 374.237 472.832L375.197 476.768C374.429 479.264 373.277 481.44 371.741 483.296C370.269 485.088 368.413 486.496 366.173 487.52C363.933 488.48 361.277 488.96 358.205 488.96C354.941 488.96 352.125 488.448 349.757 487.424C347.389 486.4 345.565 484.928 344.285 483.008C343.005 481.024 342.365 478.592 342.365 475.712C342.365 473.024 343.037 470.72 344.381 468.8C345.789 466.88 347.837 465.248 350.525 463.904C353.277 462.56 356.669 461.44 360.701 460.544C364.797 459.584 369.501 458.784 374.813 458.144ZM373.661 488V478.784L372.509 478.88V450.56C372.509 448.768 372.253 447.296 371.741 446.144C371.229 444.928 370.429 444.064 369.341 443.552C368.317 443.04 366.973 442.784 365.309 442.784C363.005 442.784 361.053 443.264 359.453 444.224C357.917 445.12 356.733 446.24 355.901 447.584C355.709 446.944 355.645 446.336 355.709 445.76C355.773 445.184 355.933 444.672 356.189 444.224C356.509 443.712 356.893 443.296 357.341 442.976C357.853 442.592 358.429 442.304 359.069 442.112V453.92H345.917V443.552C346.813 442.848 348.189 442.016 350.045 441.056C351.965 440.096 354.365 439.232 357.245 438.464C360.125 437.696 363.453 437.312 367.229 437.312C370.621 437.312 373.661 437.664 376.349 438.368C379.101 439.008 381.469 440.032 383.453 441.44C385.437 442.784 386.941 444.544 387.965 446.72C389.053 448.832 389.597 451.392 389.597 454.4V480.512C389.597 481.216 389.757 481.76 390.077 482.144C390.461 482.464 390.973 482.72 391.613 482.912C392.317 483.104 393.149 483.232 394.109 483.296L394.589 483.392V488H373.661ZM402.842 488V483.584H402.938C404.346 483.584 405.498 483.424 406.394 483.104C407.354 482.72 407.834 481.952 407.834 480.8V446.24C407.834 445.536 407.706 445.024 407.45 444.704C407.194 444.32 406.746 444 406.106 443.744C405.466 443.488 404.666 443.264 403.706 443.072L402.842 442.88V438.272H424.25V448.832L425.402 448.928V482.72C425.402 482.912 425.594 483.072 425.978 483.2C426.426 483.328 426.938 483.424 427.514 483.488C428.09 483.552 428.602 483.584 429.05 483.584H429.242V488H402.842ZM459.674 488H434.138V483.584H434.234C434.81 483.584 435.418 483.552 436.058 483.488C436.698 483.424 437.242 483.328 437.69 483.2C438.138 483.072 438.362 482.912 438.362 482.72V452.864C438.362 451.2 438.202 449.824 437.882 448.736C437.626 447.648 437.178 446.848 436.538 446.336C435.898 445.76 435.034 445.472 433.946 445.472C432.666 445.472 431.45 445.856 430.298 446.624C429.146 447.328 428.026 448.448 426.938 449.984C425.914 451.456 424.922 453.312 423.962 455.552L423.098 449.504C424.378 447.008 425.85 444.864 427.514 443.072C429.242 441.216 431.194 439.808 433.37 438.848C435.546 437.824 437.978 437.312 440.666 437.312C443.674 437.312 446.33 437.952 448.634 439.232C450.938 440.448 452.698 442.272 453.914 444.704C455.194 447.136 455.834 450.208 455.834 453.92V482.144C455.834 482.528 456.026 482.848 456.41 483.104C456.858 483.296 457.37 483.424 457.946 483.488C458.522 483.552 459.066 483.584 459.578 483.584H459.674V488ZM491.45 488H464.954V483.584H465.05C465.562 483.584 466.106 483.552 466.682 483.488C467.258 483.424 467.738 483.328 468.122 483.2C468.57 483.072 468.794 482.912 468.794 482.72V452.864C468.794 451.2 468.666 449.824 468.41 448.736C468.154 447.648 467.706 446.848 467.066 446.336C466.426 445.76 465.53 445.472 464.378 445.472C463.098 445.472 461.882 445.856 460.73 446.624C459.578 447.392 458.49 448.544 457.466 450.08C456.442 451.552 455.418 453.344 454.394 455.456L453.626 449.504C454.906 447.008 456.378 444.864 458.042 443.072C459.77 441.216 461.69 439.808 463.802 438.848C465.978 437.824 468.41 437.312 471.098 437.312C474.17 437.312 476.826 437.952 479.066 439.232C481.37 440.448 483.162 442.272 484.442 444.704C485.722 447.136 486.362 450.208 486.362 453.92V480.8C486.362 481.952 486.81 482.72 487.706 483.104C488.666 483.424 489.85 483.584 491.258 483.584H491.45V488ZM532.913 458.144L532.817 462.752C530.577 463.008 528.593 463.36 526.865 463.808C525.137 464.256 523.601 464.832 522.257 465.536C520.977 466.176 519.921 466.944 519.089 467.84C518.321 468.736 517.713 469.76 517.265 470.912C516.881 472.064 516.689 473.344 516.689 474.752C516.689 476.416 516.913 477.824 517.361 478.976C517.873 480.064 518.577 480.896 519.473 481.472C520.433 481.984 521.521 482.24 522.737 482.24C524.209 482.24 525.521 481.856 526.673 481.088C527.889 480.256 528.945 479.136 529.841 477.728C530.801 476.32 531.633 474.688 532.337 472.832L533.297 476.768C532.529 479.264 531.377 481.44 529.841 483.296C528.369 485.088 526.513 486.496 524.273 487.52C522.033 488.48 519.377 488.96 516.305 488.96C513.041 488.96 510.225 488.448 507.857 487.424C505.489 486.4 503.665 484.928 502.385 483.008C501.105 481.024 500.465 478.592 500.465 475.712C500.465 473.024 501.137 470.72 502.481 468.8C503.889 466.88 505.937 465.248 508.625 463.904C511.377 462.56 514.769 461.44 518.801 460.544C522.897 459.584 527.601 458.784 532.913 458.144ZM531.761 488V478.784L530.609 478.88V450.56C530.609 448.768 530.353 447.296 529.841 446.144C529.329 444.928 528.529 444.064 527.441 443.552C526.417 443.04 525.073 442.784 523.409 442.784C521.105 442.784 519.153 443.264 517.553 444.224C516.017 445.12 514.833 446.24 514.001 447.584C513.809 446.944 513.745 446.336 513.809 445.76C513.873 445.184 514.033 444.672 514.289 444.224C514.609 443.712 514.993 443.296 515.441 442.976C515.953 442.592 516.529 442.304 517.169 442.112V453.92H504.017V443.552C504.913 442.848 506.289 442.016 508.145 441.056C510.065 440.096 512.465 439.232 515.345 438.464C518.225 437.696 521.553 437.312 525.329 437.312C528.721 437.312 531.761 437.664 534.449 438.368C537.201 439.008 539.569 440.032 541.553 441.44C543.537 442.784 545.041 444.544 546.065 446.72C547.153 448.832 547.697 451.392 547.697 454.4V480.512C547.697 481.216 547.857 481.76 548.177 482.144C548.561 482.464 549.073 482.72 549.713 482.912C550.417 483.104 551.249 483.232 552.209 483.296L552.689 483.392V488H531.761ZM592.577 476.96L587.585 486.464L583.361 493.568L562.433 445.76C562.113 444.992 561.729 444.384 561.281 443.936C560.833 443.488 560.289 443.2 559.649 443.072C559.073 442.88 558.369 442.784 557.537 442.784H557.345V438.272H585.377V442.784H585.281C584.321 442.784 583.393 442.816 582.497 442.88C581.601 442.944 580.833 443.04 580.193 443.168C579.617 443.232 579.329 443.392 579.329 443.648L592.577 476.96ZM590.081 487.808C588.417 491.84 586.753 495.264 585.089 498.08C583.425 500.96 581.729 503.296 580.001 505.088C578.273 506.88 576.449 508.192 574.529 509.024C572.673 509.856 570.657 510.272 568.481 510.272C566.689 510.272 565.153 510.08 563.873 509.696C562.657 509.376 561.697 508.96 560.993 508.448V496.352C561.249 496.416 561.825 496.64 562.721 497.024C563.617 497.408 564.737 497.76 566.081 498.08C567.425 498.464 568.865 498.656 570.401 498.656C572.001 498.656 573.473 498.464 574.817 498.08C576.161 497.76 577.409 497.152 578.561 496.256C579.713 495.36 580.801 494.08 581.825 492.416C582.913 490.816 583.969 488.736 584.993 486.176L587.201 481.088L602.177 444.704C602.177 444.32 601.921 444 601.409 443.744C600.897 443.424 600.225 443.2 599.393 443.072C598.561 442.88 597.633 442.784 596.609 442.784H596.417V438.272H612.545V442.784C611.713 442.784 610.977 442.912 610.337 443.168C609.761 443.36 609.217 443.776 608.705 444.416C608.193 445.056 607.713 445.952 607.265 447.104L590.081 487.808ZM651.357 458.144L651.261 462.752C649.021 463.008 647.037 463.36 645.309 463.808C643.581 464.256 642.045 464.832 640.701 465.536C639.421 466.176 638.365 466.944 637.533 467.84C636.765 468.736 636.157 469.76 635.709 470.912C635.325 472.064 635.133 473.344 635.133 474.752C635.133 476.416 635.357 477.824 635.805 478.976C636.317 480.064 637.021 480.896 637.917 481.472C638.877 481.984 639.965 482.24 641.181 482.24C642.653 482.24 643.965 481.856 645.117 481.088C646.333 480.256 647.389 479.136 648.285 477.728C649.245 476.32 650.077 474.688 650.781 472.832L651.741 476.768C650.973 479.264 649.821 481.44 648.285 483.296C646.813 485.088 644.957 486.496 642.717 487.52C640.477 488.48 637.821 488.96 634.749 488.96C631.485 488.96 628.669 488.448 626.301 487.424C623.933 486.4 622.109 484.928 620.829 483.008C619.549 481.024 618.909 478.592 618.909 475.712C618.909 473.024 619.581 470.72 620.925 468.8C622.333 466.88 624.381 465.248 627.069 463.904C629.821 462.56 633.213 461.44 637.245 460.544C641.341 459.584 646.045 458.784 651.357 458.144ZM650.205 488V478.784L649.053 478.88V450.56C649.053 448.768 648.797 447.296 648.285 446.144C647.773 444.928 646.973 444.064 645.885 443.552C644.861 443.04 643.517 442.784 641.853 442.784C639.549 442.784 637.597 443.264 635.997 444.224C634.461 445.12 633.277 446.24 632.445 447.584C632.253 446.944 632.189 446.336 632.253 445.76C632.317 445.184 632.477 444.672 632.733 444.224C633.053 443.712 633.437 443.296 633.885 442.976C634.397 442.592 634.973 442.304 635.613 442.112V453.92H622.461V443.552C623.357 442.848 624.733 442.016 626.589 441.056C628.509 440.096 630.909 439.232 633.789 438.464C636.669 437.696 639.997 437.312 643.773 437.312C647.165 437.312 650.205 437.664 652.893 438.368C655.645 439.008 658.013 440.032 659.997 441.44C661.981 442.784 663.485 444.544 664.509 446.72C665.597 448.832 666.141 451.392 666.141 454.4V480.512C666.141 481.216 666.301 481.76 666.621 482.144C667.005 482.464 667.517 482.72 668.157 482.912C668.861 483.104 669.693 483.232 670.653 483.296L671.133 483.392V488H650.205Z" fill="white"/>
<g clip-path="url(#clip0_207_2)">
<path d="M579.959 97.8211L543.867 122.05L517.104 140.046L461.327 177.546L401.448 217.8L373.479 236.601L341.368 258.175L334.974 262.478L306.2 281.821L275.034 302.773L273.265 303.98L243.446 324.026L237.112 328.289L206.268 349.019L167.401 330.943L133.5 315.199L91.959 295.896L129.157 270.883L170.698 290.186L204.599 305.93L234.378 285.903L238.057 283.43L270.55 261.594L280.946 254.617L303.506 239.456L338.653 215.83L370.764 194.255L414.518 164.838L457.426 135.984L478.257 121.99L505.02 103.994L471.139 88.2501L445.885 105.241L444.377 106.266L406.595 131.661L368.412 157.338L365.516 112.057L383.472 99.9927L402.835 86.9633L423.164 73.2904L429.598 68.9674L448.378 56.3401C458.914 49.2624 476.89 47.9756 488.311 53.505L579.959 97.8211Z" fill="white"/>
<path d="M332.803 124.443L332.643 121.93L332.803 124.443Z" fill="white"/>
<path d="M332.621 121.769L332.48 119.416L332.621 121.769Z" fill="white"/>
<path fill-rule="evenodd" clip-rule="evenodd" d="M300.913 202.981L336.161 179.577L332.803 124.423L332.642 121.909L332.622 121.749L332.461 119.396L329.727 76.4271L328.178 52.2584L290.397 34.6847L287.22 33.2169L254.968 18.2371L216.101 0.180908L220.645 71.1792L227.301 175.133L227.381 176.48L229.131 203.705L192.857 228.055C198.347 240.119 205.465 251.218 213.95 261.111L232.026 248.966L253.239 234.69L268.179 224.657L265.283 179.376L260.373 102.738L293.324 80.6654L295.947 121.648L300.913 202.981Z" fill="white"/>
</g>
<defs>
<clipPath id="clip0_207_2">
<rect width="488" height="349.06" fill="white" transform="translate(92)"/>
</clipPath>
</defs>
</svg>
