<svg width="909" height="148" viewBox="0 0 909 148" fill="none" xmlns="http://www.w3.org/2000/svg">
<path d="M259.616 74.168L261.344 79.64L242.336 45.944C241.952 45.176 241.504 44.632 240.992 44.312C240.544 43.992 240.032 43.8 239.456 43.736C238.944 43.608 238.368 43.544 237.728 43.544H237.056V38.84H267.584V43.544H266.048C265.216 43.544 264.384 43.576 263.552 43.64C262.72 43.704 262.048 43.832 261.536 44.024C261.088 44.152 260.864 44.344 260.864 44.6L276.32 72.92L273.536 73.4L288.32 45.464C288.32 45.08 288.096 44.76 287.648 44.504C287.2 44.184 286.592 43.96 285.824 43.832C285.056 43.64 284.128 43.544 283.04 43.544H281.6V38.84H299.936V43.544H299.36C298.592 43.544 297.856 43.672 297.152 43.928C296.512 44.184 295.904 44.6 295.328 45.176C294.752 45.752 294.176 46.552 293.6 47.576L276.416 79.736L278.144 74.168V99.032C278.144 100.44 278.656 101.336 279.68 101.72C280.768 102.104 282.112 102.296 283.712 102.296H285.056V107H252.608V102.296H254.048C255.584 102.296 256.896 102.104 257.984 101.72C259.072 101.336 259.616 100.44 259.616 99.032V74.168ZM333.22 77.144L333.124 81.752C330.884 82.008 328.9 82.36 327.172 82.808C325.444 83.256 323.908 83.832 322.564 84.536C321.284 85.176 320.228 85.944 319.395 86.84C318.628 87.736 318.02 88.76 317.572 89.912C317.188 91.064 316.996 92.344 316.996 93.752C316.996 95.416 317.22 96.824 317.668 97.976C318.18 99.064 318.884 99.896 319.78 100.472C320.74 100.984 321.828 101.24 323.043 101.24C324.516 101.24 325.828 100.856 326.98 100.088C328.196 99.256 329.252 98.136 330.148 96.728C331.108 95.32 331.94 93.688 332.644 91.832L333.604 95.768C332.836 98.264 331.684 100.44 330.148 102.296C328.675 104.088 326.819 105.496 324.58 106.52C322.34 107.48 319.684 107.96 316.611 107.96C313.347 107.96 310.531 107.448 308.163 106.424C305.795 105.4 303.971 103.928 302.691 102.008C301.411 100.024 300.771 97.592 300.771 94.712C300.771 92.024 301.443 89.72 302.787 87.8C304.195 85.88 306.243 84.248 308.931 82.904C311.683 81.56 315.076 80.44 319.108 79.544C323.204 78.584 327.908 77.784 333.22 77.144ZM332.068 107V97.784L330.916 97.88V69.56C330.916 67.768 330.66 66.296 330.148 65.144C329.636 63.928 328.836 63.064 327.747 62.552C326.723 62.04 325.379 61.784 323.715 61.784C321.411 61.784 319.46 62.264 317.86 63.224C316.324 64.12 315.14 65.24 314.307 66.584C314.115 65.944 314.052 65.336 314.116 64.76C314.18 64.184 314.34 63.672 314.595 63.224C314.915 62.712 315.299 62.296 315.747 61.976C316.259 61.592 316.835 61.304 317.476 61.112V72.92H304.323V62.552C305.219 61.848 306.595 61.016 308.451 60.056C310.372 59.096 312.772 58.232 315.652 57.464C318.532 56.696 321.86 56.312 325.636 56.312C329.028 56.312 332.068 56.664 334.756 57.368C337.508 58.008 339.876 59.032 341.86 60.44C343.844 61.784 345.348 63.544 346.372 65.72C347.46 67.832 348.004 70.392 348.004 73.4V99.512C348.004 100.216 348.164 100.76 348.484 101.144C348.868 101.464 349.38 101.72 350.02 101.912C350.724 102.104 351.556 102.232 352.516 102.296L352.996 102.392V107H332.068ZM359.049 62.456V57.752H359.337C360.809 57.752 362.089 57.624 363.177 57.368C364.265 57.048 365.097 56.568 365.673 55.928C366.313 55.224 366.697 54.232 366.825 52.952L372.681 57.272H394.665V62.456H359.049ZM382.857 92.504C382.857 94.872 383.113 96.76 383.625 98.168C384.137 99.512 384.873 100.472 385.833 101.048C386.857 101.56 388.105 101.816 389.577 101.816C390.793 101.816 391.913 101.656 392.937 101.336C394.025 101.016 394.761 100.792 395.145 100.664V106.232C394.697 106.488 393.961 106.744 392.937 107C391.977 107.256 390.825 107.48 389.481 107.672C388.137 107.864 386.633 107.96 384.969 107.96C381.193 107.96 377.801 107.448 374.793 106.424C371.849 105.336 369.545 103.544 367.881 101.048C366.217 98.552 365.385 95.192 365.385 90.968V58.712L366.441 57.848L367.401 44.216H382.857V92.504ZM443.461 57.08V71.672C442.949 71.544 442.373 71.448 441.733 71.384C441.093 71.256 440.421 71.16 439.717 71.096C439.013 70.968 438.309 70.904 437.605 70.904C436.197 70.904 434.885 71.064 433.669 71.384C432.453 71.64 431.301 72.056 430.213 72.632C429.125 73.144 428.133 73.88 427.237 74.84C426.405 75.736 425.669 76.824 425.029 78.104L424.933 74.264C425.829 70.936 426.917 67.928 428.197 65.24C429.477 62.552 431.077 60.44 432.997 58.904C434.917 57.368 437.221 56.6 439.909 56.6C440.741 56.6 441.445 56.664 442.021 56.792C442.661 56.856 443.141 56.952 443.461 57.08ZM404.485 107V102.584H404.581C405.989 102.584 407.141 102.424 408.037 102.104C408.997 101.72 409.477 100.952 409.477 99.8V65.24C409.477 64.536 409.349 63.992 409.093 63.608C408.837 63.224 408.389 62.936 407.749 62.744C407.109 62.488 406.309 62.264 405.349 62.072L404.485 61.88V57.272H425.893V73.112L427.045 72.44V101.336C427.045 101.656 427.333 101.912 427.909 102.104C428.549 102.232 429.317 102.36 430.213 102.488C431.109 102.552 431.973 102.584 432.805 102.584H434.053V107H404.485ZM484.401 77.144L484.305 81.752C482.065 82.008 480.081 82.36 478.353 82.808C476.625 83.256 475.089 83.832 473.745 84.536C472.465 85.176 471.409 85.944 470.577 86.84C469.809 87.736 469.201 88.76 468.753 89.912C468.369 91.064 468.177 92.344 468.177 93.752C468.177 95.416 468.401 96.824 468.849 97.976C469.361 99.064 470.065 99.896 470.961 100.472C471.921 100.984 473.009 101.24 474.225 101.24C475.697 101.24 477.009 100.856 478.161 100.088C479.377 99.256 480.433 98.136 481.329 96.728C482.289 95.32 483.121 93.688 483.825 91.832L484.785 95.768C484.017 98.264 482.865 100.44 481.329 102.296C479.857 104.088 478.001 105.496 475.761 106.52C473.521 107.48 470.865 107.96 467.793 107.96C464.529 107.96 461.713 107.448 459.345 106.424C456.977 105.4 455.153 103.928 453.873 102.008C452.593 100.024 451.953 97.592 451.953 94.712C451.953 92.024 452.625 89.72 453.969 87.8C455.377 85.88 457.425 84.248 460.113 82.904C462.865 81.56 466.257 80.44 470.289 79.544C474.385 78.584 479.089 77.784 484.401 77.144ZM483.249 107V97.784L482.097 97.88V69.56C482.097 67.768 481.841 66.296 481.329 65.144C480.817 63.928 480.017 63.064 478.929 62.552C477.905 62.04 476.561 61.784 474.897 61.784C472.593 61.784 470.641 62.264 469.041 63.224C467.505 64.12 466.321 65.24 465.489 66.584C465.297 65.944 465.233 65.336 465.297 64.76C465.361 64.184 465.521 63.672 465.777 63.224C466.097 62.712 466.481 62.296 466.929 61.976C467.441 61.592 468.017 61.304 468.657 61.112V72.92H455.505V62.552C456.401 61.848 457.777 61.016 459.633 60.056C461.553 59.096 463.953 58.232 466.833 57.464C469.713 56.696 473.041 56.312 476.817 56.312C480.209 56.312 483.249 56.664 485.937 57.368C488.689 58.008 491.057 59.032 493.041 60.44C495.025 61.784 496.529 63.544 497.553 65.72C498.641 67.832 499.185 70.392 499.185 73.4V99.512C499.185 100.216 499.345 100.76 499.665 101.144C500.049 101.464 500.561 101.72 501.201 101.912C501.905 102.104 502.737 102.232 503.697 102.296L504.177 102.392V107H483.249ZM540.845 102.2C543.405 102.2 545.581 101.848 547.373 101.144C549.165 100.44 550.541 99.384 551.501 97.976C552.461 96.504 552.941 94.648 552.941 92.408C552.941 90.552 552.493 89.016 551.597 87.8C550.765 86.584 549.517 85.528 547.853 84.632C546.253 83.736 544.301 82.904 541.997 82.136C539.757 81.368 537.261 80.568 534.509 79.736C532.013 78.968 529.581 78.04 527.213 76.952C524.909 75.864 522.829 74.52 520.973 72.92C519.117 71.256 517.613 69.208 516.461 66.776C515.373 64.344 514.829 61.4 514.829 57.944C514.829 53.656 515.885 50.04 517.997 47.096C520.109 44.088 522.893 41.816 526.349 40.28C529.869 38.68 533.741 37.88 537.965 37.88C541.677 37.88 544.909 38.392 547.661 39.416C550.477 40.44 552.845 41.976 554.765 44.024C556.685 46.072 558.253 48.696 559.469 51.896L555.341 50.552L556.877 38.84H562.349V56.696H556.589C555.757 53.944 554.509 51.608 552.845 49.688C551.245 47.704 549.325 46.2 547.085 45.176C544.909 44.152 542.509 43.64 539.885 43.64C537.581 43.64 535.629 43.992 534.029 44.696C532.429 45.336 531.213 46.296 530.381 47.576C529.549 48.856 529.133 50.392 529.133 52.184C529.133 53.976 529.581 55.48 530.477 56.696C531.373 57.912 532.589 58.936 534.125 59.768C535.661 60.6 537.453 61.336 539.501 61.976C541.613 62.552 543.885 63.16 546.317 63.8C549.069 64.568 551.693 65.496 554.189 66.584C556.749 67.608 559.053 68.92 561.101 70.52C563.149 72.12 564.749 74.136 565.901 76.568C567.053 78.936 567.629 81.88 567.629 85.4C567.629 89.944 566.573 93.912 564.461 97.304C562.413 100.696 559.501 103.32 555.725 105.176C551.949 107.032 547.469 107.96 542.285 107.96C538.509 107.96 534.957 107.416 531.629 106.328C528.365 105.176 525.453 103.416 522.893 101.048C520.397 98.616 518.413 95.448 516.941 91.544L520.973 93.944L519.437 107H513.773V85.976H520.013C521.229 89.56 522.861 92.568 524.909 95C526.957 97.368 529.325 99.16 532.013 100.376C534.765 101.592 537.709 102.2 540.845 102.2ZM610.813 77.144L610.717 81.752C608.477 82.008 606.493 82.36 604.765 82.808C603.037 83.256 601.501 83.832 600.157 84.536C598.877 85.176 597.821 85.944 596.989 86.84C596.221 87.736 595.613 88.76 595.165 89.912C594.781 91.064 594.589 92.344 594.589 93.752C594.589 95.416 594.813 96.824 595.261 97.976C595.773 99.064 596.477 99.896 597.373 100.472C598.333 100.984 599.421 101.24 600.637 101.24C602.109 101.24 603.421 100.856 604.573 100.088C605.789 99.256 606.845 98.136 607.741 96.728C608.701 95.32 609.533 93.688 610.237 91.832L611.197 95.768C610.429 98.264 609.277 100.44 607.741 102.296C606.269 104.088 604.413 105.496 602.173 106.52C599.933 107.48 597.277 107.96 594.205 107.96C590.941 107.96 588.125 107.448 585.757 106.424C583.389 105.4 581.565 103.928 580.285 102.008C579.005 100.024 578.365 97.592 578.365 94.712C578.365 92.024 579.037 89.72 580.381 87.8C581.789 85.88 583.837 84.248 586.525 82.904C589.277 81.56 592.669 80.44 596.701 79.544C600.797 78.584 605.501 77.784 610.813 77.144ZM609.661 107V97.784L608.509 97.88V69.56C608.509 67.768 608.253 66.296 607.741 65.144C607.229 63.928 606.429 63.064 605.341 62.552C604.317 62.04 602.973 61.784 601.309 61.784C599.005 61.784 597.053 62.264 595.453 63.224C593.917 64.12 592.733 65.24 591.901 66.584C591.709 65.944 591.645 65.336 591.709 64.76C591.773 64.184 591.933 63.672 592.189 63.224C592.509 62.712 592.893 62.296 593.341 61.976C593.853 61.592 594.429 61.304 595.069 61.112V72.92H581.917V62.552C582.813 61.848 584.189 61.016 586.045 60.056C587.965 59.096 590.365 58.232 593.245 57.464C596.125 56.696 599.453 56.312 603.229 56.312C606.621 56.312 609.661 56.664 612.349 57.368C615.101 58.008 617.469 59.032 619.453 60.44C621.437 61.784 622.941 63.544 623.965 65.72C625.053 67.832 625.597 70.392 625.597 73.4V99.512C625.597 100.216 625.757 100.76 626.077 101.144C626.461 101.464 626.973 101.72 627.613 101.912C628.317 102.104 629.149 102.232 630.109 102.296L630.589 102.392V107H609.661ZM638.842 107V102.584H638.938C640.346 102.584 641.498 102.424 642.394 102.104C643.354 101.72 643.834 100.952 643.834 99.8V65.24C643.834 64.536 643.706 64.024 643.45 63.704C643.194 63.32 642.746 63 642.106 62.744C641.466 62.488 640.666 62.264 639.706 62.072L638.842 61.88V57.272H660.25V67.832L661.402 67.928V101.72C661.402 101.912 661.594 102.072 661.978 102.2C662.426 102.328 662.938 102.424 663.514 102.488C664.09 102.552 664.602 102.584 665.05 102.584H665.242V107H638.842ZM695.674 107H670.138V102.584H670.234C670.81 102.584 671.418 102.552 672.058 102.488C672.698 102.424 673.242 102.328 673.69 102.2C674.138 102.072 674.362 101.912 674.362 101.72V71.864C674.362 70.2 674.202 68.824 673.882 67.736C673.626 66.648 673.178 65.848 672.538 65.336C671.898 64.76 671.034 64.472 669.946 64.472C668.666 64.472 667.45 64.856 666.298 65.624C665.146 66.328 664.026 67.448 662.938 68.984C661.914 70.456 660.922 72.312 659.962 74.552L659.098 68.504C660.378 66.008 661.85 63.864 663.514 62.072C665.242 60.216 667.194 58.808 669.37 57.848C671.546 56.824 673.978 56.312 676.666 56.312C679.674 56.312 682.33 56.952 684.634 58.232C686.938 59.448 688.698 61.272 689.914 63.704C691.194 66.136 691.834 69.208 691.834 72.92V101.144C691.834 101.528 692.026 101.848 692.41 102.104C692.858 102.296 693.37 102.424 693.946 102.488C694.522 102.552 695.066 102.584 695.578 102.584H695.674V107ZM727.45 107H700.954V102.584H701.05C701.562 102.584 702.106 102.552 702.682 102.488C703.258 102.424 703.738 102.328 704.122 102.2C704.57 102.072 704.794 101.912 704.794 101.72V71.864C704.794 70.2 704.666 68.824 704.41 67.736C704.154 66.648 703.706 65.848 703.066 65.336C702.426 64.76 701.53 64.472 700.378 64.472C699.098 64.472 697.882 64.856 696.73 65.624C695.578 66.392 694.49 67.544 693.466 69.08C692.442 70.552 691.418 72.344 690.394 74.456L689.626 68.504C690.906 66.008 692.378 63.864 694.042 62.072C695.77 60.216 697.69 58.808 699.802 57.848C701.978 56.824 704.41 56.312 707.098 56.312C710.17 56.312 712.826 56.952 715.066 58.232C717.37 59.448 719.162 61.272 720.442 63.704C721.722 66.136 722.362 69.208 722.362 72.92V99.8C722.362 100.952 722.81 101.72 723.706 102.104C724.666 102.424 725.85 102.584 727.258 102.584H727.45V107ZM768.913 77.144L768.817 81.752C766.577 82.008 764.593 82.36 762.865 82.808C761.137 83.256 759.601 83.832 758.257 84.536C756.977 85.176 755.921 85.944 755.089 86.84C754.321 87.736 753.713 88.76 753.265 89.912C752.881 91.064 752.689 92.344 752.689 93.752C752.689 95.416 752.913 96.824 753.361 97.976C753.873 99.064 754.577 99.896 755.473 100.472C756.433 100.984 757.521 101.24 758.737 101.24C760.209 101.24 761.521 100.856 762.673 100.088C763.889 99.256 764.945 98.136 765.841 96.728C766.801 95.32 767.633 93.688 768.337 91.832L769.297 95.768C768.529 98.264 767.377 100.44 765.841 102.296C764.369 104.088 762.513 105.496 760.273 106.52C758.033 107.48 755.377 107.96 752.305 107.96C749.041 107.96 746.225 107.448 743.857 106.424C741.489 105.4 739.665 103.928 738.385 102.008C737.105 100.024 736.465 97.592 736.465 94.712C736.465 92.024 737.137 89.72 738.481 87.8C739.889 85.88 741.937 84.248 744.625 82.904C747.377 81.56 750.769 80.44 754.801 79.544C758.897 78.584 763.601 77.784 768.913 77.144ZM767.761 107V97.784L766.609 97.88V69.56C766.609 67.768 766.353 66.296 765.841 65.144C765.329 63.928 764.529 63.064 763.441 62.552C762.417 62.04 761.073 61.784 759.409 61.784C757.105 61.784 755.153 62.264 753.553 63.224C752.017 64.12 750.833 65.24 750.001 66.584C749.809 65.944 749.745 65.336 749.809 64.76C749.873 64.184 750.033 63.672 750.289 63.224C750.609 62.712 750.993 62.296 751.441 61.976C751.953 61.592 752.529 61.304 753.169 61.112V72.92H740.017V62.552C740.913 61.848 742.289 61.016 744.145 60.056C746.065 59.096 748.465 58.232 751.345 57.464C754.225 56.696 757.553 56.312 761.329 56.312C764.721 56.312 767.761 56.664 770.449 57.368C773.201 58.008 775.569 59.032 777.553 60.44C779.537 61.784 781.041 63.544 782.065 65.72C783.153 67.832 783.697 70.392 783.697 73.4V99.512C783.697 100.216 783.857 100.76 784.177 101.144C784.561 101.464 785.073 101.72 785.713 101.912C786.417 102.104 787.249 102.232 788.209 102.296L788.689 102.392V107H767.761ZM828.577 95.96L823.585 105.464L819.361 112.568L798.433 64.76C798.113 63.992 797.729 63.384 797.281 62.936C796.833 62.488 796.289 62.2 795.649 62.072C795.073 61.88 794.369 61.784 793.537 61.784H793.345V57.272H821.377V61.784H821.281C820.321 61.784 819.393 61.816 818.497 61.88C817.601 61.944 816.833 62.04 816.193 62.168C815.617 62.232 815.329 62.392 815.329 62.648L828.577 95.96ZM826.081 106.808C824.417 110.84 822.753 114.264 821.089 117.08C819.425 119.96 817.729 122.296 816.001 124.088C814.273 125.88 812.449 127.192 810.529 128.024C808.673 128.856 806.657 129.272 804.481 129.272C802.689 129.272 801.153 129.08 799.873 128.696C798.657 128.376 797.697 127.96 796.993 127.448V115.352C797.249 115.416 797.825 115.64 798.721 116.024C799.617 116.408 800.737 116.76 802.081 117.08C803.425 117.464 804.865 117.656 806.401 117.656C808.001 117.656 809.473 117.464 810.817 117.08C812.161 116.76 813.409 116.152 814.561 115.256C815.713 114.36 816.801 113.08 817.825 111.416C818.913 109.816 819.969 107.736 820.993 105.176L823.201 100.088L838.177 63.704C838.177 63.32 837.921 63 837.409 62.744C836.897 62.424 836.225 62.2 835.393 62.072C834.561 61.88 833.633 61.784 832.609 61.784H832.417V57.272H848.545V61.784C847.713 61.784 846.977 61.912 846.337 62.168C845.761 62.36 845.217 62.776 844.705 63.416C844.193 64.056 843.713 64.952 843.265 66.104L826.081 106.808ZM887.357 77.144L887.261 81.752C885.021 82.008 883.037 82.36 881.309 82.808C879.581 83.256 878.045 83.832 876.701 84.536C875.421 85.176 874.365 85.944 873.533 86.84C872.765 87.736 872.157 88.76 871.709 89.912C871.325 91.064 871.133 92.344 871.133 93.752C871.133 95.416 871.357 96.824 871.805 97.976C872.317 99.064 873.021 99.896 873.917 100.472C874.877 100.984 875.965 101.24 877.181 101.24C878.653 101.24 879.965 100.856 881.117 100.088C882.333 99.256 883.389 98.136 884.285 96.728C885.245 95.32 886.077 93.688 886.781 91.832L887.741 95.768C886.973 98.264 885.821 100.44 884.285 102.296C882.813 104.088 880.957 105.496 878.717 106.52C876.477 107.48 873.821 107.96 870.749 107.96C867.485 107.96 864.669 107.448 862.301 106.424C859.933 105.4 858.109 103.928 856.829 102.008C855.549 100.024 854.909 97.592 854.909 94.712C854.909 92.024 855.581 89.72 856.925 87.8C858.333 85.88 860.381 84.248 863.069 82.904C865.821 81.56 869.213 80.44 873.245 79.544C877.341 78.584 882.045 77.784 887.357 77.144ZM886.205 107V97.784L885.053 97.88V69.56C885.053 67.768 884.797 66.296 884.285 65.144C883.773 63.928 882.973 63.064 881.885 62.552C880.861 62.04 879.517 61.784 877.853 61.784C875.549 61.784 873.597 62.264 871.997 63.224C870.461 64.12 869.277 65.24 868.445 66.584C868.253 65.944 868.189 65.336 868.253 64.76C868.317 64.184 868.477 63.672 868.733 63.224C869.053 62.712 869.437 62.296 869.885 61.976C870.397 61.592 870.973 61.304 871.613 61.112V72.92H858.461V62.552C859.357 61.848 860.733 61.016 862.589 60.056C864.509 59.096 866.909 58.232 869.789 57.464C872.669 56.696 875.997 56.312 879.773 56.312C883.165 56.312 886.205 56.664 888.893 57.368C891.645 58.008 894.013 59.032 895.997 60.44C897.981 61.784 899.485 63.544 900.509 65.72C901.597 67.832 902.141 70.392 902.141 73.4V99.512C902.141 100.216 902.301 100.76 902.621 101.144C903.005 101.464 903.517 101.72 904.157 101.912C904.861 102.104 905.693 102.232 906.653 102.296L907.133 102.392V107H886.205Z" fill="#8B47E7"/>
<g clip-path="url(#clip0_247_374)">
<path d="M205.982 41.2931L190.747 51.521L179.449 59.1176L155.904 74.9474L130.627 91.9401L118.821 99.8762L105.266 108.984L102.567 110.8L90.4204 118.965L77.2643 127.81L76.5173 128.319L63.9298 136.781L61.2562 138.581L48.2358 147.332L31.8288 139.701L17.5183 133.055L-0.0175781 124.907L15.6849 114.348L33.2208 122.496L47.5313 129.142L60.1018 120.688L61.6551 119.644L75.3715 110.427L79.7597 107.481L89.283 101.082L104.12 91.1083L117.675 82.0008L136.144 69.5831L154.257 57.4031L163.051 51.4955L174.348 43.8989L160.046 37.2529L149.385 44.4251L148.749 44.858L132.8 55.5782L116.682 66.4171L115.46 47.3025L123.039 42.2098L131.213 36.7097L139.794 30.938L142.51 29.1131L150.438 23.7827C154.886 20.795 162.474 20.2518 167.295 22.5859L205.982 41.2931Z" fill="#8B47E7"/>
<path d="M101.65 52.5312L101.582 51.4702L101.65 52.5312Z" fill="#8B47E7"/>
<path d="M101.574 51.4025L101.515 50.4094L101.574 51.4025Z" fill="#8B47E7"/>
<path fill-rule="evenodd" clip-rule="evenodd" d="M88.1889 85.6848L103.068 75.805L101.651 52.5228L101.583 51.4618L101.574 51.3939L101.506 50.4009L100.352 32.2623L99.6984 22.0599L83.7497 14.6416L82.4087 14.0219L68.7942 7.6985L52.3871 0.076416L54.3054 30.047L57.1149 73.9292L57.1488 74.4978L57.8873 85.9904L42.5752 96.2692C44.8924 101.362 47.8971 106.047 51.4789 110.223L59.1095 105.097L68.0642 99.0701L74.3707 94.8347L73.1484 75.7201L71.0758 43.3689L84.9854 34.0514L86.0924 51.3515L88.1889 85.6848Z" fill="#8B47E7"/>
</g>
<defs>
<clipPath id="clip0_247_374">
<rect width="206" height="147.349" fill="white"/>
</clipPath>
</defs>
</svg>
